<svg width="35" height="35" viewBox="0 0 35 35" fill="none" xmlns="http://www.w3.org/2000/svg">
<circle cx="17.5" cy="17.5" r="17.5" fill="url(#paint0_linear_1_9)"/>
<g clip-path="url(#clip0_1_9)">
<path d="M14.334 17C14.334 15.5273 15.5276 14.3331 17.0003 14.3331C18.4731 14.3331 19.6673 15.5273 19.6673 17C19.6673 18.4727 18.4731 19.6669 17.0003 19.6669C15.5276 19.6669 14.334 18.4727 14.334 17ZM12.8923 17C12.8923 19.2688 14.7314 21.1079 17.0003 21.1079C19.2692 21.1079 21.1084 19.2688 21.1084 17C21.1084 14.7312 19.2692 12.8921 17.0003 12.8921C14.7314 12.8921 12.8923 14.7312 12.8923 17ZM20.311 12.7292C20.3108 13.2594 20.7404 13.6894 21.2706 13.6896C21.8008 13.6898 22.2308 13.2602 22.2311 12.73C22.2313 12.1998 21.8016 11.7698 21.2714 11.7696C20.7414 11.7698 20.3114 12.1993 20.311 12.7292ZM13.7682 23.5118C12.9882 23.4763 12.5642 23.3464 12.2825 23.2366C11.909 23.0912 11.6425 22.918 11.3623 22.6382C11.0821 22.3584 10.9086 22.0922 10.7638 21.7187C10.654 21.4371 10.5241 21.013 10.4886 20.233C10.4498 19.3898 10.4421 19.1364 10.4421 17.0001C10.4421 14.8637 10.4505 14.6111 10.4886 13.7671C10.5242 12.9871 10.655 12.5639 10.7638 12.2815C10.9093 11.908 11.0825 11.6415 11.3623 11.3613C11.6421 11.0811 11.9083 10.9076 12.2825 10.7629C12.5641 10.6531 12.9882 10.5231 13.7682 10.4877C14.6115 10.4489 14.8648 10.4412 17.0003 10.4412C19.1358 10.4412 19.3894 10.4495 20.2334 10.4877C21.0134 10.5232 21.4367 10.6541 21.7191 10.7629C22.0926 10.9076 22.3591 11.0815 22.6393 11.3613C22.9195 11.6411 23.0923 11.908 23.2378 12.2815C23.3476 12.5631 23.4775 12.9871 23.513 13.7671C23.5517 14.6111 23.5595 14.8637 23.5595 17.0001C23.5595 19.1364 23.5517 19.3891 23.513 20.233C23.4774 21.013 23.3469 21.4369 23.2378 21.7187C23.0923 22.0922 22.9191 22.3587 22.6393 22.6382C22.3595 22.9178 22.0926 23.0912 21.7191 23.2366C21.4375 23.3464 21.0134 23.4764 20.2334 23.5118C19.3901 23.5506 19.1368 23.5583 17.0003 23.5583C14.8639 23.5583 14.6112 23.5506 13.7682 23.5118ZM13.7019 9.04845C12.8503 9.08723 12.2683 9.22227 11.76 9.42003C11.2337 9.62426 10.7881 9.89824 10.3428 10.3428C9.89757 10.7873 9.62428 11.2336 9.42005 11.7599C9.22228 12.2685 9.08724 12.8501 9.04845 13.7018C9.00902 14.5548 9 14.8275 9 17C9 19.1725 9.00902 19.4452 9.04845 20.2982C9.08724 21.15 9.22228 21.7315 9.42005 22.2401C9.62428 22.7661 9.89764 23.2129 10.3428 23.6572C10.788 24.1016 11.2337 24.3752 11.76 24.58C12.2693 24.7777 12.8503 24.9128 13.7019 24.9516C14.5554 24.9903 14.8277 25 17.0003 25C19.173 25 19.4457 24.991 20.2987 24.9516C21.1504 24.9128 21.732 24.7777 22.2406 24.58C22.7666 24.3752 23.2125 24.1018 23.6578 23.6572C24.1031 23.2127 24.3758 22.7661 24.5806 22.2401C24.7784 21.7315 24.914 21.1499 24.9522 20.2982C24.991 19.4446 25 19.1725 25 17C25 14.8275 24.991 14.5548 24.9522 13.7018C24.9134 12.85 24.7784 12.2682 24.5806 11.7599C24.3758 11.2339 24.1024 10.788 23.6578 10.3428C23.2132 9.89754 22.7666 9.62426 22.2412 9.42003C21.732 9.22227 21.1504 9.08659 20.2993 9.04845C19.4463 9.00966 19.1736 9 17.001 9C14.8283 9 14.5554 9.00902 13.7019 9.04845Z" fill="white"/>
</g>
<defs>
<linearGradient id="paint0_linear_1_9" x1="-4.5" y1="29" x2="41" y2="11.5" gradientUnits="userSpaceOnUse">
<stop stop-color="#F19E5B"/>
<stop offset="1" stop-color="#E9528E"/>
</linearGradient>
<clipPath id="clip0_1_9">
<rect width="16" height="16" fill="white" transform="translate(9 9)"/>
</clipPath>
</defs>
</svg>
