<svg width="35" height="35" viewBox="0 0 35 35" fill="none" xmlns="http://www.w3.org/2000/svg">
<circle cx="17.5" cy="17.5" r="17.5" fill="url(#paint0_linear_1_18)"/>
<path d="M25.4837 11.623C25.4121 11.5742 25.325 11.5418 25.2317 11.5292C25.1385 11.5166 25.0426 11.5243 24.9545 11.5516L9.91336 16.1986C9.73041 16.2551 9.57562 16.357 9.47225 16.4889C9.36887 16.6208 9.32248 16.7756 9.34005 16.93C9.35762 17.0845 9.43819 17.2303 9.56967 17.3456C9.70115 17.4608 9.87644 17.5393 10.0692 17.5691L14.0859 18.192V21.7188C14.086 21.8823 14.148 22.042 14.2639 22.1775C14.3798 22.313 14.5443 22.4181 14.7364 22.4792C14.9285 22.5404 15.1393 22.5548 15.3419 22.5207C15.5444 22.4865 15.7294 22.4054 15.8731 22.2877L17.8503 20.6688L20.9363 22.8045C21.1247 22.9361 21.3676 23.0088 21.6191 23.009C21.729 23.0088 21.8382 22.9951 21.9427 22.9686C22.1142 22.9257 22.2684 22.8482 22.39 22.7436C22.5117 22.6391 22.5964 22.5112 22.6359 22.3727L25.6507 12.0256C25.6719 11.9528 25.6675 11.8769 25.6381 11.806C25.6087 11.735 25.5553 11.6718 25.4837 11.623ZM10.2303 16.8771C10.2274 16.8711 10.2274 16.8644 10.2303 16.8584C10.2336 16.8564 10.2374 16.8548 10.2414 16.8537L22.0949 13.1904L14.4281 17.5264L10.2414 16.8795L10.2303 16.8771ZM15.2319 21.799C15.2114 21.8158 15.1851 21.8274 15.1563 21.8323C15.1275 21.8372 15.0975 21.8352 15.0701 21.8266C15.0427 21.818 15.0192 21.8031 15.0025 21.7839C14.9859 21.7647 14.9768 21.742 14.9766 21.7188V18.6783L17.1801 20.2018L15.2319 21.799ZM21.7683 22.2139C21.7628 22.2337 21.7507 22.252 21.7332 22.2668C21.7157 22.2817 21.6935 22.2925 21.6689 22.2982C21.6437 22.3052 21.6167 22.3067 21.5906 22.3026C21.5645 22.2985 21.5402 22.2889 21.5204 22.2748L15.2467 17.9301L24.5508 12.666L21.7683 22.2139Z" fill="#F8F8F8"/>
<defs>
<linearGradient id="paint0_linear_1_18" x1="-4.5" y1="29" x2="41" y2="11.5" gradientUnits="userSpaceOnUse">
<stop stop-color="#3044C4"/>
<stop offset="1" stop-color="#4F6ADF"/>
</linearGradient>
</defs>
</svg>
